# xmcd CD database file
# Copyright (C) 1993-1998 Ti Kan
#
# Track frame offsets:
#  150
#  22297
#  42777
#  63280
#  87500
#  109190
#  128337
#  146762
#  162105
#  180465
#  198215
#
# Disc length: 2894 seconds
#
# Revision: 1
# Processed by: cddbd v1.4b41PL1 Copyright (c) Steve Scherf et al.
# Submitted via: CDWizzard Release:4.35
#
DISCID=8f0b4c0b
DTITLE=Dorothy Moore - More Dorothy
DYEAR=1900
DGENRE=
TTITLE0=You Should Have Been Good To Me
TTITLE1=Who Can The Winner Be
TTITLE2=Lie To Me
TTITLE3=Our Favourite Song
TTITLE4=Knee Deep In A River
TTITLE5=It Ain't Over 'Til Your Heart Says Goodbye
TTITLE6=I'll Spend My Life Lovin' You
TTITLE7=Why Is Leavin' You So Hard To Do
TTITLE8=Daydreamin'
TTITLE9=Stop What You're Doing To Me
TTITLE10=One Heartache Too Late
EXTD=
EXTT0=
EXTT1=
EXTT2=
EXTT3=
EXTT4=
EXTT5=
EXTT6=
EXTT7=
EXTT8=
EXTT9=
EXTT10=
PLAYORDER=
